<?xml version="1.0" encoding="UTF-8"?>
<svg id="Camada_1" data-name="Camada 1" xmlns="http://www.w3.org/2000/svg" viewBox="0 0 1000.00098 182.99902">
  <defs>
    <style>
      .cls-1 {
        stroke-width: 0px;
      }

      .cls-1, .cls-2 {
        fill: #008b71;
      }

      .cls-2 {
        font-family: MavenPro-SemiBold, 'Maven Pro';
        font-size: 174.53519px;
        font-weight: 600;
        letter-spacing: -.025em;
      }
    </style>
  </defs>
  <g>
    <path class="cls-1" d="m143.64129,96.44206v7.14562c-.03065-.03061-.06125-.06122-.09186-.09182h-.00613c-.03674-.049-.0796-.0796-.11021-.11021-.03061-.03065-.06122-.05512-.09186-.0796-.04896-.049-.09795-.09186-.14695-.1286-.01835-.01835-.03674-.03061-.05509-.04287-.02452-.02448-.04287-.04287-.06738-.06122v-.00613c-.04283-.03061-.0796-.06122-.12243-.09799-.17146-.13469-.3368-.26938-.51435-.39185-.05512-.04287-.11634-.08573-.17143-.12247-1.53077-1.0838-3.32486-1.81857-5.26587-2.10021-.18981-.02452-.37963-.049-.57557-.06734-.38576-.03674-.77151-.05512-1.16949-.05512h-37.33242c-6.37785,0-11.54811-5.17027-11.54811-11.54811v-36.8548h12.00122q.00613,0,.01226.00613c.21429-.00613.42862-.00613.64292-.00613,4.39636,0,8.64578.63679,12.65643,1.81854,2.29615.67969,4.5188,1.5369,6.64352,2.55944.64904.31228,1.28583.63682,1.91653.97971,1.4879.80212,2.92681,1.68998,4.3045,2.65739.63069.43475,1.243.89398,1.84305,1.35934v.00613c1.23687.9552,2.41862,1.97774,3.53916,3.06154,1.68385,1.61037,3.23297,3.35543,4.64127,5.21684.86337,1.13279,1.67775,2.30841,2.42475,3.5269.82664,1.3287,1.57976,2.70639,2.25942,4.12695,1.63485,3.39834,2.84725,7.02932,3.57589,10.83173.5327,2.74316.80825,5.57202.80825,8.46823Z"/>
    <path class="cls-1" d="m162.72078,128.74129c.00613,0,.00613-.00613.00613-.01226v5.8935c0,2.00213-.14191,4.00644-.51943,5.97265-.00238.01237-.00476.02474-.00714.03711-1.37769,7.24974-4.80051,13.77079-9.64385,18.93867-1.75736,1.73284-3.61263,3.3616-5.55364,4.88624-.02452.02448-.049.04287-.07347.05509-3.80857,2.98806-7.94778,5.57202-12.3564,7.69058-3.20849,1.54303-6.55779,2.84112-10.02347,3.85757-6.0496,1.78793-12.45432,2.74926-19.08562,2.74926h-38.17737c-6.6313,0-13.04215-.96133-19.09175-2.75538-3.46568-1.01645-6.81499-2.30841-10.01738-3.85144-11.63994-5.59037-21.41851-14.4321-28.16003-25.34952-1.24297-2.00226-2.38189-4.08412-3.41056-6.22107-4.23716-8.81108-6.60679-18.68761-6.60679-29.11522v-18.13042c0-10.42762,2.36963-20.30415,6.60679-29.11522,1.02867-2.13695,2.16759-4.21268,3.41056-6.22107,6.74151-10.91742,16.52009-19.75914,28.16003-25.34952,3.20239-1.54303,6.5517-2.83499,10.01738-3.85144,6.0496-1.79406,12.46045-2.75538,19.09175-2.75538h36.49965c-.12247.01226-.25103.02452-.3735.03674h-.01226c-4.15143.44701-7.89878,2.22268-10.81947,4.88624-3.8147,3.49625-6.20881,8.51718-6.20881,14.0953v6.71704h-12.65639c-4.39636,0-8.64578.63679-12.65643,1.82467-2.29615.67356-4.5188,1.53077-6.64352,2.55331-2.17981,1.04706-4.26168,2.26555-6.22103,3.64324-.62457.43475-1.23687.88172-1.83692,1.35321-1.23074.9552-2.41249,1.97774-3.53916,3.06767-1.67772,1.61037-3.23297,3.34931-4.6413,5.21074-.86334,1.13275-1.67772,2.3145-2.42471,3.53299-.82664,1.3287-1.58589,2.70639-2.26555,4.12695-2.80438,5.84144-4.37802,12.38701-4.37802,19.29995v12.0196c0,6.91294,1.57364,13.45851,4.37802,19.29995.67965,1.42056,1.43278,2.79825,2.26555,4.12695.747,1.21849,1.56138,2.40024,2.42471,3.53912,1.40834,1.85531,2.96359,3.60037,4.6413,5.20462,1.12053,1.0838,2.30228,2.10634,3.53303,3.06154.60005.47149,1.21849.92459,1.84305,1.35934,1.95935,1.37156,4.04122,2.59005,6.22103,3.63711,2.12473,1.02254,4.34737,1.88588,6.64352,2.55331,4.01065,1.19401,8.26006,1.83079,12.65643,1.83079h25.31278c4.39636,0,8.64578-.63679,12.65643-1.82467,2.29615-.67356,4.5188-1.53077,6.64352-2.55944.75313-.35515,1.49403-.74091,2.21655-1.14501,1.38382-.75926,2.71865-1.59202,4.00448-2.4921.63069-.43475,1.24913-.89398,1.85531-1.36547,1.23074-.9552,2.40636-1.97161,3.5269-3.05541,1.67772-1.61037,3.23297-3.35543,4.64127-5.21074.86337-1.13275,1.67775-2.3145,2.42475-3.53299.82664-1.3287,1.57976-2.70639,2.25942-4.12695.73478-1.53077,1.38995-3.1044,1.94101-4.72091.14699-.41024.28168-.82051.41027-1.23687,1.32257-4.21268,2.03287-8.69474,2.03287-13.34217v-5.16788c.03674.00613.06734.01226.10408.03061h.00613c2.96968.78377,5.71893,2.09408,8.15594,3.82692.57553.40414,1.13275.83273,1.67159,1.28587,5.59037,4.69639,9.14788,11.73793,9.14788,19.6122,0,.23268-.00613.45923-.00613.69191Z"/>
  </g>
  <text class="cls-2" transform="translate(201.68848 145.47461)"><tspan x="0" y="0">compusist</tspan></text>
</svg>